<?xml version="1.0" standalone="no"?><!-- Generator: Gravit.io --><svg xmlns="http://www.w3.org/2000/svg" xmlns:xlink="http://www.w3.org/1999/xlink" style="isolation:isolate" viewBox="0 0 500 500" width="500" height="500"><defs><clipPath id="_clipPath_oVHhI2pqT3XUIzEhBuF6w3gvfJ9Tusy6"><rect width="500" height="500"/></clipPath></defs><g clip-path="url(#_clipPath_oVHhI2pqT3XUIzEhBuF6w3gvfJ9Tusy6)"><path d="M 137.145 120 L 323.855 120 C 332.766 120 340 127.234 340 136.145 L 340 360.855 C 340 369.766 332.766 377 323.855 377 L 137.145 377 C 128.234 377 121 369.766 121 360.855 L 121 136.145 C 121 127.234 128.234 120 137.145 120 Z" style="stroke:none;fill:#96A6CC;stroke-miterlimit:10;"/><g/><g><path d="M 137.522 118.25 L 305.478 118.25 C 316.252 118.25 325 126.998 325 137.772 L 325 343.728 C 325 354.502 316.252 363.25 305.478 363.25 L 137.522 363.25 C 126.748 363.25 118 354.502 118 343.728 L 118 137.772 C 118 126.998 126.748 118.25 137.522 118.25 Z" style="stroke:none;fill:#08122A;stroke-miterlimit:10;"/><path d="M 137.522 118.25 L 305.478 118.25 C 316.252 118.25 325 126.998 325 137.772 L 325 343.728 C 325 354.502 316.252 363.25 305.478 363.25 L 137.522 363.25 C 126.748 363.25 118 354.502 118 343.728 L 118 137.772 C 118 126.998 126.748 118.25 137.522 118.25 Z" style="fill:none;stroke:#08122A;stroke-width:5;stroke-linecap:square;stroke-miterlimit:2;"/><path d="M 180.483 100.375 L 265.517 100.375 C 272.959 100.375 279 106.416 279 113.858 L 279 122.642 C 279 130.084 272.959 136.125 265.517 136.125 L 180.483 136.125 C 173.041 136.125 167 130.084 167 122.642 L 167 113.858 C 167 106.416 173.041 100.375 180.483 100.375 Z" style="stroke:none;fill:#08122A;stroke-linecap:square;stroke-miterlimit:2;"/><path d="M 180.483 100.375 L 265.517 100.375 C 272.959 100.375 279 106.416 279 113.858 L 279 122.642 C 279 130.084 272.959 136.125 265.517 136.125 L 180.483 136.125 C 173.041 136.125 167 130.084 167 122.642 L 167 113.858 C 167 106.416 173.041 100.375 180.483 100.375 Z" style="fill:none;stroke:#08122A;stroke-width:5;stroke-linecap:square;stroke-miterlimit:2;"/></g><g><rect x="144" y="205.938" width="158" height="17.062" transform="matrix(1,0,0,1,0,0)" fill="rgb(255,255,255)"/><rect x="144" y="258.938" width="158" height="17.062" transform="matrix(1,0,0,1,0,0)" fill="rgb(255,255,255)"/><rect x="144" y="305.938" width="158" height="17.062" transform="matrix(1,0,0,1,0,0)" fill="rgb(255,255,255)"/><rect x="144" y="155.938" width="158" height="17.062" transform="matrix(1,0,0,1,0,0)" fill="rgb(255,255,255)"/></g><g style="isolation:isolate"/><g style="isolation:isolate"><g><defs><filter id="9C8ASiXvagiGLKTsXzY6V9ObUAiQaTrX" x="-200%" y="-200%" width="400%" height="400%" filterUnits="objectBoundingBox" color-interpolation-filters="sRGB"><feGaussianBlur xmlns="http://www.w3.org/2000/svg" in="SourceGraphic" stdDeviation="2.146804531419514"/><feOffset xmlns="http://www.w3.org/2000/svg" dx="0" dy="5" result="pf_100_offsetBlur"/><feFlood xmlns="http://www.w3.org/2000/svg" flood-color="#0F0303" flood-opacity="1"/><feComposite xmlns="http://www.w3.org/2000/svg" in2="pf_100_offsetBlur" operator="in" result="pf_100_dropShadow"/><feBlend xmlns="http://www.w3.org/2000/svg" in="SourceGraphic" in2="pf_100_dropShadow" mode="normal"/></filter></defs><g filter="url(#9C8ASiXvagiGLKTsXzY6V9ObUAiQaTrX)"><path d=" M 92 247.621 L 149.02 247.621 C 150.153 247.621 151.288 246.824 151.673 245.759 L 151.673 245.759 L 167.327 202.447 C 167.672 201.494 168.373 201.476 168.765 202.411 L 168.765 202.411 L 183.235 236.975 C 183.675 238.025 184.841 238.802 185.98 238.802 L 185.98 238.802 L 195.02 238.802 C 196.145 238.802 197.231 237.978 197.535 236.895 L 197.535 236.895 L 218.465 162.315 C 218.731 161.367 219.229 161.378 219.455 162.335 L 219.455 162.335 L 246.545 277.051 C 246.779 278.043 247.508 278.162 248.046 277.297 L 248.046 277.297 L 284.954 217.945 C 285.506 217.058 286.415 217.103 286.878 218.038 L 286.878 218.038 L 301.122 246.826 C 301.63 247.853 302.834 248.601 303.98 248.601 L 303.98 248.601 L 359 248.601" fill="none" vector-effect="non-scaling-stroke" stroke-width="15" stroke="rgb(227,45,45)" stroke-linejoin="miter" stroke-linecap="square" stroke-miterlimit="3"/></g></g></g></g></svg>